<svg width="108" height="108" viewBox="0 0 108 108" fill="none" xmlns="http://www.w3.org/2000/svg">
<g clip-path="url(#clip0_105_22)">
<rect width="108" height="108" fill="white"/>
<ellipse opacity="0.35" rx="155.43" ry="72.855" transform="matrix(0.803122 0.595814 0.595814 -0.803122 -27.7626 -16.8811)" fill="#DDE9FF"/>
<path d="M25.4109 46.9472C26.1539 46.9472 26.8624 47.1027 27.5363 47.4138C28.2102 47.7075 28.7977 48.1309 29.2989 48.6838C29.8173 49.2195 30.2233 49.8589 30.5171 50.6019C30.8281 51.345 30.9837 52.1571 30.9837 53.0384C30.9837 53.9197 30.8281 54.7318 30.5171 55.4749C30.2233 56.2179 29.8173 56.8659 29.2989 57.4189C28.7977 57.9546 28.2102 58.3779 27.5363 58.689C26.8624 58.9827 26.1539 59.1296 25.4109 59.1296C24.9097 59.1296 24.4691 59.0691 24.0889 58.9482C23.7261 58.8272 23.4064 58.6976 23.1299 58.5594C22.8189 58.3866 22.5424 58.1878 22.3005 57.9632V63.1472H19.3197V47.0768H21.5229L22.0413 48.2432C22.3005 48.0013 22.6029 47.7853 22.9485 47.5952C23.2422 47.4397 23.5965 47.2928 24.0112 47.1546C24.4259 47.0163 24.8925 46.9472 25.4109 46.9472ZM22.0413 53.0384C22.0413 54.0234 22.3264 54.8096 22.8966 55.3971C23.4669 55.9846 24.1753 56.2784 25.0221 56.2784C25.8688 56.2784 26.5773 55.9846 27.1475 55.3971C27.7177 54.8096 28.0029 54.0234 28.0029 53.0384C28.0029 52.0534 27.7177 51.2672 27.1475 50.6797C26.5773 50.0922 25.8688 49.7984 25.0221 49.7984C24.1753 49.7984 23.4669 50.0922 22.8966 50.6797C22.3264 51.2672 22.0413 52.0534 22.0413 53.0384ZM35.3697 53.0384C35.3697 54.0234 35.6548 54.8096 36.2251 55.3971C36.7953 55.9846 37.5038 56.2784 38.3505 56.2784C39.1972 56.2784 39.9057 55.9846 40.476 55.3971C41.0462 54.8096 41.3313 54.0234 41.3313 53.0384C41.3313 52.0534 41.0462 51.2672 40.476 50.6797C39.9057 50.0922 39.1972 49.7984 38.3505 49.7984C37.5038 49.7984 36.7953 50.0922 36.2251 50.6797C35.6548 51.2672 35.3697 52.0534 35.3697 53.0384ZM44.3121 53.0384C44.3121 53.8851 44.148 54.68 43.8196 55.423C43.5086 56.1488 43.0766 56.7882 42.5236 57.3411C41.988 57.8941 41.3572 58.3347 40.6315 58.663C39.923 58.9741 39.1627 59.1296 38.3505 59.1296C37.5384 59.1296 36.7694 58.9741 36.0436 58.663C35.3352 58.3347 34.7044 57.8941 34.1515 57.3411C33.6158 56.7882 33.1838 56.1488 32.8555 55.423C32.5444 54.68 32.3889 53.8851 32.3889 53.0384C32.3889 52.1917 32.5444 51.4054 32.8555 50.6797C33.1838 49.9366 33.6158 49.2886 34.1515 48.7357C34.7044 48.1827 35.3352 47.7507 36.0436 47.4397C36.7694 47.1114 37.5384 46.9472 38.3505 46.9472C39.1627 46.9472 39.923 47.1114 40.6315 47.4397C41.3572 47.7507 41.988 48.1827 42.5236 48.7357C43.0766 49.2886 43.5086 49.9366 43.8196 50.6797C44.148 51.4054 44.3121 52.1917 44.3121 53.0384ZM57.2356 54.5936C57.0973 55.1811 56.864 55.7514 56.5357 56.3043C56.2074 56.84 55.8013 57.3238 55.3175 57.7558C54.8336 58.1706 54.2807 58.5075 53.6586 58.7667C53.0365 59.0086 52.3712 59.1296 51.6628 59.1296C50.8506 59.1296 50.0816 58.9741 49.3559 58.663C48.6474 58.3347 48.0167 57.8941 47.4637 57.3411C46.928 56.7882 46.496 56.1488 46.1677 55.423C45.8567 54.68 45.7012 53.8851 45.7012 53.0384C45.7012 52.1917 45.8567 51.4054 46.1677 50.6797C46.496 49.9366 46.928 49.2886 47.4637 48.7357C48.0167 48.1827 48.6474 47.7507 49.3559 47.4397C50.0816 47.1114 50.8506 46.9472 51.6628 46.9472C52.3712 46.9472 53.0365 47.0768 53.6586 47.336C54.2807 47.5779 54.8336 47.9149 55.3175 48.3469C55.8013 48.7616 56.2074 49.2454 56.5357 49.7984C56.864 50.3341 57.0973 50.8957 57.2356 51.4832H54.2548C54.1165 51.1722 53.9264 50.8957 53.6845 50.6538C53.4772 50.4464 53.2093 50.2563 52.881 50.0835C52.5527 49.8934 52.1466 49.7984 51.6628 49.7984C50.816 49.7984 50.1076 50.0922 49.5373 50.6797C48.9671 51.2672 48.682 52.0534 48.682 53.0384C48.682 54.0234 48.9671 54.8096 49.5373 55.3971C50.1076 55.9846 50.816 56.2784 51.6628 56.2784C52.1466 56.2784 52.5527 56.192 52.881 56.0192C53.2093 55.8464 53.4772 55.6563 53.6845 55.449C53.9264 55.207 54.1165 54.9219 54.2548 54.5936H57.2356ZM66.2832 59L62.136 53.5568V59H59.1552V42.6704H62.136V52.0016L65.7648 47.0768H69.1344L64.8576 52.7792L69.6528 59H66.2832ZM81.0443 55.3712C80.8888 55.8205 80.6469 56.2698 80.3185 56.719C80.0075 57.1683 79.6187 57.5744 79.1521 57.9373C78.7029 58.2829 78.1845 58.568 77.5969 58.7926C77.0267 59.0173 76.4046 59.1296 75.7307 59.1296C74.9185 59.1296 74.1496 58.9741 73.4238 58.663C72.7153 58.3347 72.0846 57.8941 71.5317 57.3411C70.996 56.7882 70.564 56.1488 70.2357 55.423C69.9246 54.68 69.7691 53.8851 69.7691 53.0384C69.7691 52.1917 69.9246 51.4054 70.2357 50.6797C70.564 49.9366 70.996 49.2886 71.5317 48.7357C72.0846 48.1827 72.7153 47.7507 73.4238 47.4397C74.1496 47.1114 74.9185 46.9472 75.7307 46.9472C76.5083 46.9472 77.2427 47.0941 77.9339 47.3878C78.6251 47.6816 79.2299 48.0963 79.7483 48.632C80.2667 49.1677 80.6728 49.8157 80.9665 50.576C81.2776 51.319 81.4331 52.1398 81.4331 53.0384C81.4331 53.1766 81.4245 53.3149 81.4072 53.4531C81.3899 53.5741 81.3726 53.695 81.3553 53.816C81.3381 53.9542 81.3208 54.0838 81.3035 54.2048H73.0091C73.1473 54.7923 73.4411 55.2848 73.8904 55.6822C74.3397 56.0797 74.9531 56.2784 75.7307 56.2784C76.1281 56.2784 76.4565 56.2352 76.7157 56.1488C76.9921 56.0624 77.2254 55.9587 77.4155 55.8378C77.6229 55.6995 77.7957 55.544 77.9339 55.3712H81.0443ZM75.7307 49.7984C74.9531 49.7984 74.3137 50.023 73.8126 50.4723C73.3288 50.9216 73.0177 51.4746 72.8795 52.1312H78.5819C78.4437 51.4746 78.124 50.9216 77.6229 50.4723C77.139 50.023 76.5083 49.7984 75.7307 49.7984ZM84.7722 44.2256H87.3642V47.0768H89.9562V49.7984H87.3642V54.7232C87.3642 55.2416 87.5111 55.6563 87.8049 55.9674C88.1159 56.2611 88.5306 56.408 89.049 56.408C89.1873 56.408 89.2996 56.408 89.386 56.408C89.4724 56.3907 89.5501 56.3734 89.6193 56.3562C89.6884 56.3389 89.7575 56.313 89.8266 56.2784V58.8704C89.7057 58.9222 89.5674 58.9654 89.4119 59C89.1181 59.0864 88.7812 59.1296 88.401 59.1296C87.8135 59.1296 87.2692 59.0346 86.7681 58.8445C86.2842 58.6371 85.8609 58.3434 85.498 57.9632C85.1524 57.583 84.8759 57.1338 84.6685 56.6154C84.4785 56.097 84.3834 55.5094 84.3834 54.8528V49.7984H82.569V47.336H83.3466C84.297 47.336 84.7722 46.8608 84.7722 45.9104V44.2256Z" fill="#4988F4"/>
</g>
<defs>
<clipPath id="clip0_105_22">
<rect width="108" height="108" fill="white"/>
</clipPath>
</defs>
</svg>
