<svg width="108" height="108" viewBox="0 0 108 108" fill="none" xmlns="http://www.w3.org/2000/svg">
<g clip-path="url(#clip0_105_22)">
<rect width="108" height="108" fill="white"/>
<ellipse opacity="0.35" rx="103.62" ry="48.57" transform="matrix(0.803122 0.595814 0.595814 -0.803122 -0.841768 6.746)" fill="#DDE9FF"/>
<path d="M35.2156 49.9648C35.7109 49.9648 36.1833 50.0685 36.6325 50.2758C37.0818 50.4717 37.4735 50.7539 37.8076 51.1226C38.1532 51.4797 38.4239 51.9059 38.6197 52.4013C38.8271 52.8966 38.9308 53.4381 38.9308 54.0256C38.9308 54.6131 38.8271 55.1546 38.6197 55.6499C38.4239 56.1453 38.1532 56.5773 37.8076 56.9459C37.4735 57.303 37.0818 57.5853 36.6325 57.7926C36.1833 57.9885 35.7109 58.0864 35.2156 58.0864C34.8815 58.0864 34.5877 58.0461 34.3343 57.9654C34.0924 57.8848 33.8793 57.7984 33.6949 57.7062C33.4876 57.591 33.3033 57.4586 33.142 57.3088V60.7648H31.1548V50.0512H32.6236L32.9692 50.8288C33.142 50.6675 33.3436 50.5235 33.574 50.3968C33.7698 50.2931 34.006 50.1952 34.2825 50.103C34.5589 50.0109 34.87 49.9648 35.2156 49.9648ZM32.9692 54.0256C32.9692 54.6822 33.1593 55.2064 33.5394 55.5981C33.9196 55.9898 34.3919 56.1856 34.9564 56.1856C35.5209 56.1856 35.9932 55.9898 36.3733 55.5981C36.7535 55.2064 36.9436 54.6822 36.9436 54.0256C36.9436 53.369 36.7535 52.8448 36.3733 52.4531C35.9932 52.0614 35.5209 51.8656 34.9564 51.8656C34.3919 51.8656 33.9196 52.0614 33.5394 52.4531C33.1593 52.8448 32.9692 53.369 32.9692 54.0256ZM41.8035 54.0256C41.8035 54.6822 41.9936 55.2064 42.3737 55.5981C42.7539 55.9898 43.2262 56.1856 43.7907 56.1856C44.3552 56.1856 44.8275 55.9898 45.2076 55.5981C45.5878 55.2064 45.7779 54.6822 45.7779 54.0256C45.7779 53.369 45.5878 52.8448 45.2076 52.4531C44.8275 52.0614 44.3552 51.8656 43.7907 51.8656C43.2262 51.8656 42.7539 52.0614 42.3737 52.4531C41.9936 52.8448 41.8035 53.369 41.8035 54.0256ZM47.7651 54.0256C47.7651 54.5901 47.6556 55.12 47.4368 55.6154C47.2294 56.0992 46.9414 56.5254 46.5728 56.8941C46.2156 57.2627 45.7952 57.5565 45.3113 57.7754C44.839 57.9827 44.3321 58.0864 43.7907 58.0864C43.2492 58.0864 42.7366 57.9827 42.2528 57.7754C41.7804 57.5565 41.36 57.2627 40.9913 56.8941C40.6342 56.5254 40.3462 56.0992 40.1273 55.6154C39.92 55.12 39.8163 54.5901 39.8163 54.0256C39.8163 53.4611 39.92 52.937 40.1273 52.4531C40.3462 51.9578 40.6342 51.5258 40.9913 51.1571C41.36 50.7885 41.7804 50.5005 42.2528 50.2931C42.7366 50.0742 43.2492 49.9648 43.7907 49.9648C44.3321 49.9648 44.839 50.0742 45.3113 50.2931C45.7952 50.5005 46.2156 50.7885 46.5728 51.1571C46.9414 51.5258 47.2294 51.9578 47.4368 52.4531C47.6556 52.937 47.7651 53.4611 47.7651 54.0256ZM56.3294 55.0624C56.2372 55.4541 56.0817 55.8342 55.8628 56.2029C55.6439 56.56 55.3732 56.8826 55.0507 57.1706C54.7281 57.447 54.3595 57.6717 53.9447 57.8445C53.53 58.0058 53.0865 58.0864 52.6142 58.0864C52.0727 58.0864 51.5601 57.9827 51.0763 57.7754C50.6039 57.5565 50.1835 57.2627 49.8148 56.8941C49.4577 56.5254 49.1697 56.0992 48.9508 55.6154C48.7435 55.12 48.6398 54.5901 48.6398 54.0256C48.6398 53.4611 48.7435 52.937 48.9508 52.4531C49.1697 51.9578 49.4577 51.5258 49.8148 51.1571C50.1835 50.7885 50.6039 50.5005 51.0763 50.2931C51.5601 50.0742 52.0727 49.9648 52.6142 49.9648C53.0865 49.9648 53.53 50.0512 53.9447 50.224C54.3595 50.3853 54.7281 50.6099 55.0507 50.8979C55.3732 51.1744 55.6439 51.497 55.8628 51.8656C56.0817 52.2227 56.2372 52.5971 56.3294 52.9888H54.3422C54.25 52.7814 54.1233 52.5971 53.962 52.4358C53.8238 52.2976 53.6452 52.1709 53.4263 52.0557C53.2075 51.929 52.9367 51.8656 52.6142 51.8656C52.0497 51.8656 51.5774 52.0614 51.1972 52.4531C50.8171 52.8448 50.627 53.369 50.627 54.0256C50.627 54.6822 50.8171 55.2064 51.1972 55.5981C51.5774 55.9898 52.0497 56.1856 52.6142 56.1856C52.9367 56.1856 53.2075 56.128 53.4263 56.0128C53.6452 55.8976 53.8238 55.7709 53.962 55.6326C54.1233 55.4714 54.25 55.2813 54.3422 55.0624H56.3294ZM62.3098 58L59.545 54.3712V58H57.5578V47.1136H59.545V53.3344L61.9642 50.0512H64.2106L61.3594 53.8528L64.5562 58H62.3098ZM72.0992 55.5808C71.9955 55.8803 71.8342 56.1798 71.6154 56.4794C71.408 56.7789 71.1488 57.0496 70.8378 57.2915C70.5382 57.5219 70.1926 57.712 69.801 57.8618C69.4208 58.0115 69.0061 58.0864 68.5568 58.0864C68.0154 58.0864 67.5027 57.9827 67.0189 57.7754C66.5466 57.5565 66.1261 57.2627 65.7574 56.8941C65.4003 56.5254 65.1123 56.0992 64.8934 55.6154C64.6861 55.12 64.5824 54.5901 64.5824 54.0256C64.5824 53.4611 64.6861 52.937 64.8934 52.4531C65.1123 51.9578 65.4003 51.5258 65.7574 51.1571C66.1261 50.7885 66.5466 50.5005 67.0189 50.2931C67.5027 50.0742 68.0154 49.9648 68.5568 49.9648C69.0752 49.9648 69.5648 50.0627 70.0256 50.2586C70.4864 50.4544 70.8896 50.7309 71.2352 51.088C71.5808 51.4451 71.8515 51.8771 72.0474 52.384C72.2547 52.8794 72.3584 53.4266 72.3584 54.0256C72.3584 54.1178 72.3526 54.2099 72.3411 54.3021C72.3296 54.3827 72.3181 54.4634 72.3066 54.544C72.295 54.6362 72.2835 54.7226 72.272 54.8032H66.7424C66.8346 55.1949 67.0304 55.5232 67.3299 55.7882C67.6294 56.0531 68.0384 56.1856 68.5568 56.1856C68.8218 56.1856 69.0406 56.1568 69.2134 56.0992C69.3978 56.0416 69.5533 55.9725 69.68 55.8918C69.8182 55.7997 69.9334 55.696 70.0256 55.5808H72.0992ZM68.5568 51.8656C68.0384 51.8656 67.6122 52.0154 67.2781 52.3149C66.9555 52.6144 66.7482 52.983 66.656 53.4208H70.4576C70.3654 52.983 70.1523 52.6144 69.8182 52.3149C69.4957 52.0154 69.0752 51.8656 68.5568 51.8656ZM74.5332 48.1504H76.2612V50.0512H77.9892V51.8656H76.2612V55.1488C76.2612 55.4944 76.3591 55.7709 76.5549 55.9782C76.7623 56.1741 77.0388 56.272 77.3844 56.272C77.4765 56.272 77.5514 56.272 77.609 56.272C77.6666 56.2605 77.7184 56.249 77.7645 56.2374C77.8106 56.2259 77.8567 56.2086 77.9028 56.1856V57.9136C77.8221 57.9482 77.73 57.977 77.6263 58C77.4304 58.0576 77.2058 58.0864 76.9524 58.0864C76.5607 58.0864 76.1978 58.023 75.8637 57.8963C75.5412 57.7581 75.2589 57.5622 75.017 57.3088C74.7866 57.0554 74.6023 56.7558 74.464 56.4102C74.3373 56.0646 74.274 55.673 74.274 55.2352V51.8656H73.0644V50.224H73.5828C74.2164 50.224 74.5332 49.9072 74.5332 49.2736V48.1504Z" fill="#4988F4"/>
</g>
</svg>
